<?xml version="1.0" standalone="no"?>
<!DOCTYPE svg PUBLIC "-//W3C//DTD SVG 20010904//EN"
 "http://www.w3.org/TR/2001/REC-SVG-20010904/DTD/svg10.dtd">
<svg version="1.0" xmlns="http://www.w3.org/2000/svg"
 width="32.000000pt" height="32.000000pt" viewBox="0 0 32.000000 32.000000"
 preserveAspectRatio="xMidYMid meet">

<g transform="translate(0.000000,32.000000) scale(0.100000,-0.100000)"
fill="#000000" stroke="none">
<path d="M17 309 c-37 -22 -4 -79 37 -63 21 8 21 60 0 68 -19 7 -15 8 -37 -5z"/>
<path d="M136 304 c-9 -8 -16 -19 -16 -24 0 -11 29 -40 40 -40 11 0 40 29 40
40 0 5 -7 16 -16 24 -8 9 -19 16 -24 16 -5 0 -16 -7 -24 -16z"/>
<path d="M262 308 c-30 -30 0 -78 37 -58 26 14 27 46 2 60 -24 13 -24 13 -39
-2z"/>
<path d="M17 189 c-23 -14 -22 -46 4 -59 37 -20 67 28 37 58 -14 14 -18 14
-41 1z"/>
<path d="M138 189 c-38 -22 -5 -79 36 -63 23 9 24 52 3 66 -15 10 -18 10 -39
-3z"/>
<path d="M263 193 c-19 -7 -16 -60 3 -67 22 -9 54 11 54 34 0 16 -29 42 -42
39 -2 0 -9 -3 -15 -6z"/>
<path d="M17 69 c-23 -14 -22 -46 4 -59 15 -9 24 -8 35 1 19 15 18 55 -2 63
-19 7 -15 8 -37 -5z"/>
<path d="M136 64 c-9 -8 -16 -19 -16 -24 0 -11 29 -40 40 -40 11 0 40 29 40
40 0 11 -29 40 -40 40 -5 0 -16 -7 -24 -16z"/>
<path d="M262 68 c-30 -30 0 -78 37 -58 26 14 27 46 2 60 -24 13 -24 13 -39
-2z"/>
</g>
</svg>
